<mxfile host="drawio-plugin" modified="2023-09-22T11:49:42.362Z" agent="5.0 (Windows NT 6.2; Win64; x64) AppleWebKit/537.36 (KHTML, like Gecko) Chrome/104.0.5112.102 Safari/537.36" etag="rbhw7RH8MEspboQLrI3C" version="20.5.3" type="embed"><diagram id="C5RBs43oDa-KdzZeNtuy" name="Page-1"><mxGraphModel dx="1366" dy="695" grid="1" gridSize="10" guides="1" tooltips="1" connect="1" arrows="1" fold="1" page="1" pageScale="1" pageWidth="827" pageHeight="1169" math="0" shadow="0"><root><mxCell id="WIyWlLk6GJQsqaUBKTNV-0"/><mxCell id="WIyWlLk6GJQsqaUBKTNV-1" parent="WIyWlLk6GJQsqaUBKTNV-0"/><mxCell id="WIyWlLk6GJQsqaUBKTNV-2" value="" style="rounded=0;html=1;jettySize=auto;orthogonalLoop=1;fontSize=11;endArrow=block;endFill=0;endSize=8;strokeWidth=1;shadow=0;labelBackgroundColor=none;edgeStyle=orthogonalEdgeStyle;entryX=0.088;entryY=0.288;entryDx=0;entryDy=0;entryPerimeter=0;" parent="WIyWlLk6GJQsqaUBKTNV-1" source="WIyWlLk6GJQsqaUBKTNV-3" target="10" edge="1"><mxGeometry relative="1" as="geometry"><mxPoint x="220" y="190" as="targetPoint"/></mxGeometry></mxCell><mxCell id="WIyWlLk6GJQsqaUBKTNV-3" value="Welcome (print)" style="rounded=1;whiteSpace=wrap;html=1;fontSize=12;glass=0;strokeWidth=1;shadow=0;" parent="WIyWlLk6GJQsqaUBKTNV-1" vertex="1"><mxGeometry x="160" y="80" width="120" height="40" as="geometry"/></mxCell><mxCell id="3" style="edgeStyle=orthogonalEdgeStyle;rounded=0;orthogonalLoop=1;jettySize=auto;html=1;exitX=1;exitY=0.5;exitDx=0;exitDy=0;entryX=0;entryY=0.5;entryDx=0;entryDy=0;" parent="WIyWlLk6GJQsqaUBKTNV-1" source="10" target="5" edge="1"><mxGeometry relative="1" as="geometry"><mxPoint x="245" y="210" as="sourcePoint"/><mxPoint x="390" y="150" as="targetPoint"/><Array as="points"><mxPoint x="280" y="290"/><mxPoint x="370" y="290"/><mxPoint x="370" y="300"/></Array></mxGeometry></mxCell><mxCell id="8" value="yes" style="edgeLabel;html=1;align=center;verticalAlign=middle;resizable=0;points=[];" parent="3" vertex="1" connectable="0"><mxGeometry x="-0.1938" y="-2" relative="1" as="geometry"><mxPoint x="4" y="-12" as="offset"/></mxGeometry></mxCell><mxCell id="46" style="edgeStyle=orthogonalEdgeStyle;rounded=0;orthogonalLoop=1;jettySize=auto;html=1;exitX=1;exitY=0.5;exitDx=0;exitDy=0;entryX=0.5;entryY=0;entryDx=0;entryDy=0;" parent="WIyWlLk6GJQsqaUBKTNV-1" source="WIyWlLk6GJQsqaUBKTNV-7" target="39" edge="1"><mxGeometry relative="1" as="geometry"/></mxCell><mxCell id="WIyWlLk6GJQsqaUBKTNV-7" value="lost life&amp;nbsp;" style="rounded=1;whiteSpace=wrap;html=1;fontSize=12;glass=0;strokeWidth=1;shadow=0;" parent="WIyWlLk6GJQsqaUBKTNV-1" vertex="1"><mxGeometry x="150" y="400" width="120" height="40" as="geometry"/></mxCell><mxCell id="38" style="edgeStyle=orthogonalEdgeStyle;rounded=0;orthogonalLoop=1;jettySize=auto;html=1;exitX=0;exitY=0;exitDx=0;exitDy=0;entryX=0;entryY=0.5;entryDx=0;entryDy=0;" parent="WIyWlLk6GJQsqaUBKTNV-1" source="5" target="15" edge="1"><mxGeometry relative="1" as="geometry"><Array as="points"><mxPoint x="369" y="240"/><mxPoint x="320" y="240"/><mxPoint x="320" y="100"/></Array></mxGeometry></mxCell><mxCell id="5" value="Letra correta&amp;nbsp;" style="rounded=1;whiteSpace=wrap;html=1;" parent="WIyWlLk6GJQsqaUBKTNV-1" vertex="1"><mxGeometry x="369" y="270" width="120" height="40" as="geometry"/></mxCell><mxCell id="20" style="edgeStyle=orthogonalEdgeStyle;rounded=0;orthogonalLoop=1;jettySize=auto;html=1;exitX=0.5;exitY=1;exitDx=0;exitDy=0;entryX=0.75;entryY=0;entryDx=0;entryDy=0;startArrow=none;" parent="WIyWlLk6GJQsqaUBKTNV-1" source="21" target="WIyWlLk6GJQsqaUBKTNV-7" edge="1"><mxGeometry relative="1" as="geometry"><mxPoint x="350" y="210" as="targetPoint"/></mxGeometry></mxCell><mxCell id="10" value="Escolhe letra(letter)&amp;nbsp;" style="shape=manualInput;whiteSpace=wrap;html=1;" parent="WIyWlLk6GJQsqaUBKTNV-1" vertex="1"><mxGeometry x="200" y="240" width="80" height="80" as="geometry"/></mxCell><mxCell id="27" style="edgeStyle=orthogonalEdgeStyle;rounded=0;orthogonalLoop=1;jettySize=auto;html=1;exitX=0.5;exitY=1;exitDx=0;exitDy=0;entryX=0;entryY=0.5;entryDx=0;entryDy=0;" parent="WIyWlLk6GJQsqaUBKTNV-1" source="39" target="13" edge="1"><mxGeometry relative="1" as="geometry"><mxPoint x="90" y="540" as="targetPoint"/><Array as="points"><mxPoint x="420" y="600"/><mxPoint x="120" y="600"/><mxPoint x="120" y="565"/></Array></mxGeometry></mxCell><mxCell id="13" value="Lose&amp;nbsp;" style="rounded=1;whiteSpace=wrap;html=1;fontSize=12;glass=0;strokeWidth=1;shadow=0;" parent="WIyWlLk6GJQsqaUBKTNV-1" vertex="1"><mxGeometry x="150" y="545" width="120" height="40" as="geometry"/></mxCell><mxCell id="18" style="edgeStyle=orthogonalEdgeStyle;rounded=0;orthogonalLoop=1;jettySize=auto;html=1;exitX=1;exitY=0.5;exitDx=0;exitDy=0;" parent="WIyWlLk6GJQsqaUBKTNV-1" source="15" target="17" edge="1"><mxGeometry relative="1" as="geometry"/></mxCell><mxCell id="15" value="letter = letter&amp;nbsp;&amp;nbsp;" style="rounded=1;whiteSpace=wrap;html=1;" parent="WIyWlLk6GJQsqaUBKTNV-1" vertex="1"><mxGeometry x="369" y="80" width="120" height="40" as="geometry"/></mxCell><mxCell id="17" value="win" style="rounded=1;whiteSpace=wrap;html=1;" parent="WIyWlLk6GJQsqaUBKTNV-1" vertex="1"><mxGeometry x="559" y="210" width="120" height="40" as="geometry"/></mxCell><mxCell id="21" value="NO" style="text;html=1;align=center;verticalAlign=middle;resizable=0;points=[];autosize=1;strokeColor=none;fillColor=none;" parent="WIyWlLk6GJQsqaUBKTNV-1" vertex="1"><mxGeometry x="210" y="340" width="40" height="30" as="geometry"/></mxCell><mxCell id="28" value="" style="edgeStyle=orthogonalEdgeStyle;rounded=0;orthogonalLoop=1;jettySize=auto;html=1;exitX=0.5;exitY=1;exitDx=0;exitDy=0;entryX=0.75;entryY=0;entryDx=0;entryDy=0;endArrow=none;" parent="WIyWlLk6GJQsqaUBKTNV-1" source="10" target="21" edge="1"><mxGeometry relative="1" as="geometry"><mxPoint x="240" y="320" as="sourcePoint"/><mxPoint x="240" y="400" as="targetPoint"/></mxGeometry></mxCell><mxCell id="29" value="" style="endArrow=classic;startArrow=classic;html=1;rounded=0;entryX=0.5;entryY=1;entryDx=0;entryDy=0;exitX=0.5;exitY=0;exitDx=0;exitDy=0;" parent="WIyWlLk6GJQsqaUBKTNV-1" target="WIyWlLk6GJQsqaUBKTNV-7" edge="1"><mxGeometry width="50" height="50" relative="1" as="geometry"><mxPoint x="210" y="475" as="sourcePoint"/><mxPoint x="235" y="425" as="targetPoint"/></mxGeometry></mxCell><mxCell id="31" value="letter != letter&amp;nbsp;&amp;nbsp;" style="rounded=1;whiteSpace=wrap;html=1;" parent="WIyWlLk6GJQsqaUBKTNV-1" vertex="1"><mxGeometry x="369" y="170" width="120" height="40" as="geometry"/></mxCell><mxCell id="32" value="" style="endArrow=classic;startArrow=classic;html=1;rounded=0;exitX=0.5;exitY=0;exitDx=0;exitDy=0;entryX=0.5;entryY=1;entryDx=0;entryDy=0;" parent="WIyWlLk6GJQsqaUBKTNV-1" source="5" target="31" edge="1"><mxGeometry width="50" height="50" relative="1" as="geometry"><mxPoint x="390" y="400" as="sourcePoint"/><mxPoint x="440" y="350" as="targetPoint"/></mxGeometry></mxCell><mxCell id="37" value="" style="endArrow=classic;startArrow=classic;html=1;rounded=0;exitX=1;exitY=0.5;exitDx=0;exitDy=0;entryX=1;entryY=0.5;entryDx=0;entryDy=0;" parent="WIyWlLk6GJQsqaUBKTNV-1" source="5" target="31" edge="1"><mxGeometry width="50" height="50" relative="1" as="geometry"><mxPoint x="439" y="280" as="sourcePoint"/><mxPoint x="439" y="220" as="targetPoint"/><Array as="points"><mxPoint x="520" y="230"/></Array></mxGeometry></mxCell><mxCell id="39" value="chances ==&amp;nbsp; 6" style="rounded=1;whiteSpace=wrap;html=1;fontSize=12;glass=0;strokeWidth=1;shadow=0;" parent="WIyWlLk6GJQsqaUBKTNV-1" vertex="1"><mxGeometry x="360" y="475" width="120" height="40" as="geometry"/></mxCell><mxCell id="45" style="edgeStyle=orthogonalEdgeStyle;rounded=0;orthogonalLoop=1;jettySize=auto;html=1;exitX=0;exitY=0.5;exitDx=0;exitDy=0;entryX=0;entryY=0.75;entryDx=0;entryDy=0;" parent="WIyWlLk6GJQsqaUBKTNV-1" source="42" target="10" edge="1"><mxGeometry relative="1" as="geometry"><mxPoint x="90" y="320" as="targetPoint"/><Array as="points"><mxPoint x="130" y="495"/><mxPoint x="130" y="300"/></Array></mxGeometry></mxCell><mxCell id="42" value="chances != 6" style="rounded=1;whiteSpace=wrap;html=1;fontSize=12;glass=0;strokeWidth=1;shadow=0;" parent="WIyWlLk6GJQsqaUBKTNV-1" vertex="1"><mxGeometry x="150" y="475" width="120" height="40" as="geometry"/></mxCell></root></mxGraphModel></diagram></mxfile>